<mxfile host="Electron" agent="Mozilla/5.0 (Windows NT 10.0; Win64; x64) AppleWebKit/537.36 (KHTML, like Gecko) draw.io/27.0.2 Chrome/134.0.6998.205 Electron/35.3.0 Safari/537.36" version="27.0.2">
  <diagram name="Página-1" id="mgByMBqc8JpML0xJOOR-">
    <mxGraphModel dx="1853" dy="632" grid="1" gridSize="10" guides="1" tooltips="1" connect="1" arrows="1" fold="1" page="1" pageScale="1" pageWidth="827" pageHeight="1169" math="0" shadow="0">
      <root>
        <mxCell id="0" />
        <mxCell id="1" parent="0" />
        <mxCell id="ZkOyQhPvw_QTzALNMo0H-40" style="rounded=0;orthogonalLoop=1;jettySize=auto;html=1;exitX=1;exitY=0;exitDx=0;exitDy=0;entryX=0;entryY=0.5;entryDx=0;entryDy=0;" edge="1" parent="1" source="ZkOyQhPvw_QTzALNMo0H-2" target="ZkOyQhPvw_QTzALNMo0H-39">
          <mxGeometry relative="1" as="geometry" />
        </mxCell>
        <mxCell id="ZkOyQhPvw_QTzALNMo0H-41" style="rounded=0;orthogonalLoop=1;jettySize=auto;html=1;exitX=0.5;exitY=0;exitDx=0;exitDy=0;entryX=0.5;entryY=1;entryDx=0;entryDy=0;" edge="1" parent="1" source="ZkOyQhPvw_QTzALNMo0H-2" target="ZkOyQhPvw_QTzALNMo0H-37">
          <mxGeometry relative="1" as="geometry" />
        </mxCell>
        <mxCell id="ZkOyQhPvw_QTzALNMo0H-42" style="rounded=0;orthogonalLoop=1;jettySize=auto;html=1;exitX=0.5;exitY=0;exitDx=0;exitDy=0;" edge="1" parent="1" source="ZkOyQhPvw_QTzALNMo0H-2" target="ZkOyQhPvw_QTzALNMo0H-38">
          <mxGeometry relative="1" as="geometry" />
        </mxCell>
        <mxCell id="ZkOyQhPvw_QTzALNMo0H-43" style="rounded=0;orthogonalLoop=1;jettySize=auto;html=1;exitX=0;exitY=0;exitDx=0;exitDy=0;entryX=1;entryY=0.5;entryDx=0;entryDy=0;" edge="1" parent="1" source="ZkOyQhPvw_QTzALNMo0H-2" target="ZkOyQhPvw_QTzALNMo0H-36">
          <mxGeometry relative="1" as="geometry" />
        </mxCell>
        <mxCell id="ZkOyQhPvw_QTzALNMo0H-2" value="Registrar&lt;br&gt;Usuario" style="ellipse;whiteSpace=wrap;html=1;" vertex="1" parent="1">
          <mxGeometry x="580" y="160" width="120" height="80" as="geometry" />
        </mxCell>
        <mxCell id="ZkOyQhPvw_QTzALNMo0H-45" style="edgeStyle=orthogonalEdgeStyle;rounded=0;orthogonalLoop=1;jettySize=auto;html=1;exitX=0.5;exitY=0;exitDx=0;exitDy=0;entryX=0.5;entryY=1;entryDx=0;entryDy=0;" edge="1" parent="1" source="ZkOyQhPvw_QTzALNMo0H-31" target="ZkOyQhPvw_QTzALNMo0H-2">
          <mxGeometry relative="1" as="geometry" />
        </mxCell>
        <mxCell id="ZkOyQhPvw_QTzALNMo0H-54" style="edgeStyle=orthogonalEdgeStyle;rounded=0;orthogonalLoop=1;jettySize=auto;html=1;exitX=0.5;exitY=1;exitDx=0;exitDy=0;entryX=0.5;entryY=0;entryDx=0;entryDy=0;" edge="1" parent="1" source="ZkOyQhPvw_QTzALNMo0H-31" target="ZkOyQhPvw_QTzALNMo0H-53">
          <mxGeometry relative="1" as="geometry" />
        </mxCell>
        <mxCell id="ZkOyQhPvw_QTzALNMo0H-67" style="edgeStyle=orthogonalEdgeStyle;rounded=0;orthogonalLoop=1;jettySize=auto;html=1;exitX=0;exitY=0.5;exitDx=0;exitDy=0;entryX=1;entryY=0.5;entryDx=0;entryDy=0;" edge="1" parent="1" source="ZkOyQhPvw_QTzALNMo0H-31" target="ZkOyQhPvw_QTzALNMo0H-66">
          <mxGeometry relative="1" as="geometry" />
        </mxCell>
        <mxCell id="ZkOyQhPvw_QTzALNMo0H-31" value="Gestionar&lt;br&gt;Usuario" style="rounded=0;whiteSpace=wrap;html=1;" vertex="1" parent="1">
          <mxGeometry x="580" y="290" width="120" height="60" as="geometry" />
        </mxCell>
        <mxCell id="ZkOyQhPvw_QTzALNMo0H-46" style="edgeStyle=orthogonalEdgeStyle;rounded=0;orthogonalLoop=1;jettySize=auto;html=1;exitX=0.5;exitY=0;exitDx=0;exitDy=0;entryX=0.5;entryY=1;entryDx=0;entryDy=0;" edge="1" parent="1" source="ZkOyQhPvw_QTzALNMo0H-32" target="ZkOyQhPvw_QTzALNMo0H-44">
          <mxGeometry relative="1" as="geometry" />
        </mxCell>
        <mxCell id="ZkOyQhPvw_QTzALNMo0H-77" style="edgeStyle=orthogonalEdgeStyle;rounded=0;orthogonalLoop=1;jettySize=auto;html=1;exitX=0.5;exitY=1;exitDx=0;exitDy=0;entryX=0.5;entryY=0;entryDx=0;entryDy=0;" edge="1" parent="1" source="ZkOyQhPvw_QTzALNMo0H-32" target="ZkOyQhPvw_QTzALNMo0H-76">
          <mxGeometry relative="1" as="geometry" />
        </mxCell>
        <mxCell id="ZkOyQhPvw_QTzALNMo0H-32" value="Gestion de&lt;br&gt;Dispositivos" style="rounded=0;whiteSpace=wrap;html=1;" vertex="1" parent="1">
          <mxGeometry x="120" y="290" width="120" height="60" as="geometry" />
        </mxCell>
        <mxCell id="ZkOyQhPvw_QTzALNMo0H-59" style="rounded=0;orthogonalLoop=1;jettySize=auto;html=1;exitX=1;exitY=1;exitDx=0;exitDy=0;entryX=0.5;entryY=0;entryDx=0;entryDy=0;" edge="1" parent="1" source="ZkOyQhPvw_QTzALNMo0H-33" target="ZkOyQhPvw_QTzALNMo0H-56">
          <mxGeometry relative="1" as="geometry" />
        </mxCell>
        <mxCell id="ZkOyQhPvw_QTzALNMo0H-65" style="edgeStyle=orthogonalEdgeStyle;rounded=0;orthogonalLoop=1;jettySize=auto;html=1;exitX=0.5;exitY=1;exitDx=0;exitDy=0;entryX=0.5;entryY=0;entryDx=0;entryDy=0;" edge="1" parent="1" source="ZkOyQhPvw_QTzALNMo0H-33" target="ZkOyQhPvw_QTzALNMo0H-64">
          <mxGeometry relative="1" as="geometry" />
        </mxCell>
        <mxCell id="ZkOyQhPvw_QTzALNMo0H-33" value="Controlar&lt;br&gt;Estado" style="rounded=0;whiteSpace=wrap;html=1;" vertex="1" parent="1">
          <mxGeometry x="580" y="490" width="120" height="60" as="geometry" />
        </mxCell>
        <mxCell id="ZkOyQhPvw_QTzALNMo0H-73" style="rounded=0;orthogonalLoop=1;jettySize=auto;html=1;exitX=1;exitY=1;exitDx=0;exitDy=0;entryX=0.5;entryY=0;entryDx=0;entryDy=0;" edge="1" parent="1" source="ZkOyQhPvw_QTzALNMo0H-34" target="ZkOyQhPvw_QTzALNMo0H-70">
          <mxGeometry relative="1" as="geometry" />
        </mxCell>
        <mxCell id="ZkOyQhPvw_QTzALNMo0H-74" style="rounded=0;orthogonalLoop=1;jettySize=auto;html=1;exitX=0;exitY=1;exitDx=0;exitDy=0;entryX=0.5;entryY=0;entryDx=0;entryDy=0;" edge="1" parent="1" source="ZkOyQhPvw_QTzALNMo0H-34" target="ZkOyQhPvw_QTzALNMo0H-71">
          <mxGeometry relative="1" as="geometry" />
        </mxCell>
        <mxCell id="ZkOyQhPvw_QTzALNMo0H-75" style="edgeStyle=orthogonalEdgeStyle;rounded=0;orthogonalLoop=1;jettySize=auto;html=1;exitX=0.5;exitY=1;exitDx=0;exitDy=0;entryX=0.5;entryY=0;entryDx=0;entryDy=0;" edge="1" parent="1" source="ZkOyQhPvw_QTzALNMo0H-34" target="ZkOyQhPvw_QTzALNMo0H-72">
          <mxGeometry relative="1" as="geometry" />
        </mxCell>
        <mxCell id="ZkOyQhPvw_QTzALNMo0H-80" style="edgeStyle=orthogonalEdgeStyle;rounded=0;orthogonalLoop=1;jettySize=auto;html=1;exitX=0;exitY=0.5;exitDx=0;exitDy=0;entryX=1;entryY=0.5;entryDx=0;entryDy=0;" edge="1" parent="1" source="ZkOyQhPvw_QTzALNMo0H-34" target="ZkOyQhPvw_QTzALNMo0H-79">
          <mxGeometry relative="1" as="geometry" />
        </mxCell>
        <mxCell id="ZkOyQhPvw_QTzALNMo0H-34" value="Automatización" style="rounded=0;whiteSpace=wrap;html=1;" vertex="1" parent="1">
          <mxGeometry x="120" y="490" width="120" height="60" as="geometry" />
        </mxCell>
        <mxCell id="ZkOyQhPvw_QTzALNMo0H-85" style="rounded=0;orthogonalLoop=1;jettySize=auto;html=1;exitX=0;exitY=1;exitDx=0;exitDy=0;entryX=1;entryY=0;entryDx=0;entryDy=0;" edge="1" parent="1" source="ZkOyQhPvw_QTzALNMo0H-35" target="ZkOyQhPvw_QTzALNMo0H-84">
          <mxGeometry relative="1" as="geometry" />
        </mxCell>
        <mxCell id="ZkOyQhPvw_QTzALNMo0H-86" style="edgeStyle=orthogonalEdgeStyle;rounded=0;orthogonalLoop=1;jettySize=auto;html=1;exitX=0;exitY=0.5;exitDx=0;exitDy=0;entryX=1;entryY=0.5;entryDx=0;entryDy=0;" edge="1" parent="1" source="ZkOyQhPvw_QTzALNMo0H-35" target="ZkOyQhPvw_QTzALNMo0H-83">
          <mxGeometry relative="1" as="geometry" />
        </mxCell>
        <mxCell id="ZkOyQhPvw_QTzALNMo0H-87" style="rounded=0;orthogonalLoop=1;jettySize=auto;html=1;exitX=0;exitY=0;exitDx=0;exitDy=0;entryX=1;entryY=1;entryDx=0;entryDy=0;" edge="1" parent="1" source="ZkOyQhPvw_QTzALNMo0H-35" target="ZkOyQhPvw_QTzALNMo0H-82">
          <mxGeometry relative="1" as="geometry" />
        </mxCell>
        <mxCell id="ZkOyQhPvw_QTzALNMo0H-35" value="Transparencia&lt;br&gt;Algoritmica" style="rounded=0;whiteSpace=wrap;html=1;" vertex="1" parent="1">
          <mxGeometry x="-240" y="490" width="120" height="60" as="geometry" />
        </mxCell>
        <mxCell id="ZkOyQhPvw_QTzALNMo0H-36" value="ID" style="ellipse;whiteSpace=wrap;html=1;" vertex="1" parent="1">
          <mxGeometry x="414" y="100" width="120" height="80" as="geometry" />
        </mxCell>
        <mxCell id="ZkOyQhPvw_QTzALNMo0H-37" value="Nombre" style="ellipse;whiteSpace=wrap;html=1;" vertex="1" parent="1">
          <mxGeometry x="500" y="10" width="120" height="80" as="geometry" />
        </mxCell>
        <mxCell id="ZkOyQhPvw_QTzALNMo0H-38" value="Email" style="ellipse;whiteSpace=wrap;html=1;" vertex="1" parent="1">
          <mxGeometry x="660" y="10" width="120" height="80" as="geometry" />
        </mxCell>
        <mxCell id="ZkOyQhPvw_QTzALNMo0H-39" value="Contraseña" style="ellipse;whiteSpace=wrap;html=1;" vertex="1" parent="1">
          <mxGeometry x="740" y="100" width="120" height="80" as="geometry" />
        </mxCell>
        <mxCell id="ZkOyQhPvw_QTzALNMo0H-50" style="edgeStyle=orthogonalEdgeStyle;rounded=0;orthogonalLoop=1;jettySize=auto;html=1;exitX=0.5;exitY=0;exitDx=0;exitDy=0;entryX=0.5;entryY=1;entryDx=0;entryDy=0;" edge="1" parent="1" source="ZkOyQhPvw_QTzALNMo0H-44" target="ZkOyQhPvw_QTzALNMo0H-48">
          <mxGeometry relative="1" as="geometry" />
        </mxCell>
        <mxCell id="ZkOyQhPvw_QTzALNMo0H-51" style="rounded=0;orthogonalLoop=1;jettySize=auto;html=1;exitX=1;exitY=0;exitDx=0;exitDy=0;entryX=0;entryY=1;entryDx=0;entryDy=0;" edge="1" parent="1" source="ZkOyQhPvw_QTzALNMo0H-44" target="ZkOyQhPvw_QTzALNMo0H-49">
          <mxGeometry relative="1" as="geometry" />
        </mxCell>
        <mxCell id="ZkOyQhPvw_QTzALNMo0H-52" style="rounded=0;orthogonalLoop=1;jettySize=auto;html=1;exitX=0;exitY=0;exitDx=0;exitDy=0;entryX=1;entryY=1;entryDx=0;entryDy=0;" edge="1" parent="1" source="ZkOyQhPvw_QTzALNMo0H-44" target="ZkOyQhPvw_QTzALNMo0H-47">
          <mxGeometry relative="1" as="geometry" />
        </mxCell>
        <mxCell id="ZkOyQhPvw_QTzALNMo0H-44" value="Registrar&lt;br&gt;Dispositivos" style="ellipse;whiteSpace=wrap;html=1;" vertex="1" parent="1">
          <mxGeometry x="120" y="170" width="120" height="80" as="geometry" />
        </mxCell>
        <mxCell id="ZkOyQhPvw_QTzALNMo0H-47" value="Tipo" style="ellipse;whiteSpace=wrap;html=1;" vertex="1" parent="1">
          <mxGeometry x="4" y="80" width="120" height="80" as="geometry" />
        </mxCell>
        <mxCell id="ZkOyQhPvw_QTzALNMo0H-48" value="Estado" style="ellipse;whiteSpace=wrap;html=1;" vertex="1" parent="1">
          <mxGeometry x="120" width="120" height="80" as="geometry" />
        </mxCell>
        <mxCell id="ZkOyQhPvw_QTzALNMo0H-49" value="Modificar&lt;br&gt;Caracteristicas" style="ellipse;whiteSpace=wrap;html=1;" vertex="1" parent="1">
          <mxGeometry x="230" y="80" width="120" height="80" as="geometry" />
        </mxCell>
        <mxCell id="ZkOyQhPvw_QTzALNMo0H-55" style="edgeStyle=orthogonalEdgeStyle;rounded=0;orthogonalLoop=1;jettySize=auto;html=1;exitX=0.5;exitY=1;exitDx=0;exitDy=0;entryX=0.5;entryY=0;entryDx=0;entryDy=0;" edge="1" parent="1" source="ZkOyQhPvw_QTzALNMo0H-53" target="ZkOyQhPvw_QTzALNMo0H-33">
          <mxGeometry relative="1" as="geometry" />
        </mxCell>
        <mxCell id="ZkOyQhPvw_QTzALNMo0H-53" value="Puede" style="rhombus;whiteSpace=wrap;html=1;" vertex="1" parent="1">
          <mxGeometry x="600" y="370" width="80" height="80" as="geometry" />
        </mxCell>
        <mxCell id="ZkOyQhPvw_QTzALNMo0H-56" value="Encendido" style="ellipse;whiteSpace=wrap;html=1;" vertex="1" parent="1">
          <mxGeometry x="707" y="585" width="120" height="80" as="geometry" />
        </mxCell>
        <mxCell id="ZkOyQhPvw_QTzALNMo0H-57" value="Apagado" style="ellipse;whiteSpace=wrap;html=1;" vertex="1" parent="1">
          <mxGeometry x="450" y="585" width="120" height="80" as="geometry" />
        </mxCell>
        <mxCell id="ZkOyQhPvw_QTzALNMo0H-58" style="rounded=0;orthogonalLoop=1;jettySize=auto;html=1;exitX=0;exitY=1;exitDx=0;exitDy=0;entryX=0.5;entryY=0;entryDx=0;entryDy=0;" edge="1" parent="1" source="ZkOyQhPvw_QTzALNMo0H-33" target="ZkOyQhPvw_QTzALNMo0H-57">
          <mxGeometry relative="1" as="geometry">
            <mxPoint x="480" y="560" as="targetPoint" />
          </mxGeometry>
        </mxCell>
        <mxCell id="ZkOyQhPvw_QTzALNMo0H-64" value="Ahorro de&lt;div&gt;Energia&lt;/div&gt;" style="ellipse;whiteSpace=wrap;html=1;" vertex="1" parent="1">
          <mxGeometry x="580" y="590" width="120" height="80" as="geometry" />
        </mxCell>
        <mxCell id="ZkOyQhPvw_QTzALNMo0H-68" style="edgeStyle=orthogonalEdgeStyle;rounded=0;orthogonalLoop=1;jettySize=auto;html=1;exitX=0;exitY=0.5;exitDx=0;exitDy=0;entryX=1;entryY=0.5;entryDx=0;entryDy=0;" edge="1" parent="1" source="ZkOyQhPvw_QTzALNMo0H-66" target="ZkOyQhPvw_QTzALNMo0H-32">
          <mxGeometry relative="1" as="geometry" />
        </mxCell>
        <mxCell id="ZkOyQhPvw_QTzALNMo0H-66" value="Hace" style="rhombus;whiteSpace=wrap;html=1;" vertex="1" parent="1">
          <mxGeometry x="374" y="280" width="80" height="80" as="geometry" />
        </mxCell>
        <mxCell id="ZkOyQhPvw_QTzALNMo0H-70" value="Temperatura" style="ellipse;whiteSpace=wrap;html=1;" vertex="1" parent="1">
          <mxGeometry x="220" y="590" width="120" height="80" as="geometry" />
        </mxCell>
        <mxCell id="ZkOyQhPvw_QTzALNMo0H-71" value="Temporizador" style="ellipse;whiteSpace=wrap;html=1;" vertex="1" parent="1">
          <mxGeometry x="20" y="585" width="120" height="80" as="geometry" />
        </mxCell>
        <mxCell id="ZkOyQhPvw_QTzALNMo0H-72" value="Ahorro de&lt;br&gt;Energia" style="ellipse;whiteSpace=wrap;html=1;" vertex="1" parent="1">
          <mxGeometry x="120" y="670" width="120" height="80" as="geometry" />
        </mxCell>
        <mxCell id="ZkOyQhPvw_QTzALNMo0H-78" style="edgeStyle=orthogonalEdgeStyle;rounded=0;orthogonalLoop=1;jettySize=auto;html=1;exitX=0.5;exitY=1;exitDx=0;exitDy=0;entryX=0.5;entryY=0;entryDx=0;entryDy=0;" edge="1" parent="1" source="ZkOyQhPvw_QTzALNMo0H-76" target="ZkOyQhPvw_QTzALNMo0H-34">
          <mxGeometry relative="1" as="geometry" />
        </mxCell>
        <mxCell id="ZkOyQhPvw_QTzALNMo0H-76" value="Realiza" style="rhombus;whiteSpace=wrap;html=1;" vertex="1" parent="1">
          <mxGeometry x="140" y="380" width="80" height="80" as="geometry" />
        </mxCell>
        <mxCell id="ZkOyQhPvw_QTzALNMo0H-81" style="edgeStyle=orthogonalEdgeStyle;rounded=0;orthogonalLoop=1;jettySize=auto;html=1;exitX=0;exitY=0.5;exitDx=0;exitDy=0;entryX=1;entryY=0.5;entryDx=0;entryDy=0;" edge="1" parent="1" source="ZkOyQhPvw_QTzALNMo0H-79" target="ZkOyQhPvw_QTzALNMo0H-35">
          <mxGeometry relative="1" as="geometry" />
        </mxCell>
        <mxCell id="ZkOyQhPvw_QTzALNMo0H-79" value="Debe&lt;br&gt;Tener" style="rhombus;whiteSpace=wrap;html=1;" vertex="1" parent="1">
          <mxGeometry x="-40" y="480" width="80" height="80" as="geometry" />
        </mxCell>
        <mxCell id="ZkOyQhPvw_QTzALNMo0H-82" value="Historial de&lt;div&gt;Instrucciones&lt;/div&gt;" style="ellipse;whiteSpace=wrap;html=1;" vertex="1" parent="1">
          <mxGeometry x="-413" y="390" width="120" height="80" as="geometry" />
        </mxCell>
        <mxCell id="ZkOyQhPvw_QTzALNMo0H-83" value="Funcion de&amp;nbsp;&lt;div&gt;Automatizaciones&lt;/div&gt;" style="ellipse;whiteSpace=wrap;html=1;" vertex="1" parent="1">
          <mxGeometry x="-413" y="480" width="120" height="80" as="geometry" />
        </mxCell>
        <mxCell id="ZkOyQhPvw_QTzALNMo0H-84" value="Detalles de&lt;div&gt;Automatizaciones&lt;/div&gt;" style="ellipse;whiteSpace=wrap;html=1;" vertex="1" parent="1">
          <mxGeometry x="-413" y="570" width="120" height="80" as="geometry" />
        </mxCell>
      </root>
    </mxGraphModel>
  </diagram>
</mxfile>
